{"glyphs":{"0":{"ha":663,"x_min":8,"x_max":611,"o":"m 151 757 q 173 811 151 785 q 229 854 194 838 q 301 871 264 871 q 467 809 397 871 q 574 648 538 746 q 611 446 611 550 q 575 234 611 339 q 466 62 538 129 q 293 -6 394 -6 q 171 40 238 -6 q 56 177 103 86 q 8 393 8 268 q 19 497 8 434 q 51 620 29 561 q 105 708 72 680 q 94 625 104 701 q 79 507 84 549 q 107 315 79 424 q 194 127 134 207 q 346 48 254 48 q 454 95 410 48 q 519 210 497 142 q 540 340 540 279 q 526 474 540 391 q 480 643 511 558 q 400 787 449 729 q 285 844 351 844 q 231 825 258 844 q 204 783 204 806 q 257 744 204 744 q 285 747 268 744 l 285 703 q 222 668 250 668 q 171 694 191 668 q 151 757 151 721 l 151 757 z "},"1":{"ha":297,"x_min":21,"x_max":235,"o":"m 57 743 q 116 754 99 743 q 144 788 132 764 q 171 824 155 811 q 227 842 186 837 l 227 825 q 210 704 227 785 q 182 547 193 622 q 172 353 172 472 q 186 191 172 259 q 217 80 200 123 q 235 39 235 36 q 204 13 235 32 q 146 -5 174 -5 q 109 61 126 -5 q 92 236 92 127 q 101 378 92 305 q 124 525 110 451 q 154 687 137 599 q 82 688 99 687 q 65 690 65 689 q 27 696 34 690 q 21 734 21 703 q 39 739 30 735 q 57 743 48 743 l 57 743 z "},"2":{"ha":587,"x_min":7,"x_max":524,"o":"m 23 664 q 53 756 23 710 q 141 832 83 802 q 274 861 198 861 q 403 832 348 861 q 487 750 458 802 q 515 629 515 697 q 464 470 515 542 q 300 305 412 398 q 152 177 188 211 q 108 93 117 144 q 210 108 121 97 q 524 133 298 119 q 479 4 500 47 q 446 15 477 4 q 371 32 415 25 q 257 39 327 39 q 163 34 195 39 q 85 20 131 30 q 7 8 39 10 q 93 170 40 104 q 240 327 146 235 q 375 485 333 419 q 417 637 417 552 q 394 736 417 691 q 329 807 372 780 q 229 833 287 833 q 158 815 194 833 q 99 767 122 798 q 76 700 76 736 q 96 638 76 665 q 149 611 116 611 q 177 615 168 611 q 196 631 186 620 q 211 646 207 642 q 228 612 228 617 q 224 609 228 610 q 219 603 219 608 q 140 521 219 521 q 55 563 86 521 q 23 664 23 606 l 23 664 z "},"3":{"ha":637,"x_min":13,"x_max":592,"o":"m 31 803 q 62 827 31 814 q 141 848 94 839 q 227 857 188 857 q 353 843 264 857 q 440 829 442 829 q 476 837 457 829 q 506 844 495 844 q 549 829 522 844 q 473 750 521 801 q 375 650 424 700 q 299 571 326 599 q 303 567 301 569 q 307 563 305 565 q 394 540 326 556 q 502 505 463 524 q 566 441 541 485 q 592 321 592 397 q 550 189 592 265 q 423 56 508 113 q 217 0 337 0 q 120 14 167 0 q 43 61 73 29 q 13 143 13 93 q 35 200 13 176 q 92 223 57 223 q 137 213 120 223 q 161 188 154 203 q 171 159 169 174 q 174 139 173 144 q 121 146 141 146 q 111 133 111 146 q 81 129 87 133 q 75 107 75 125 q 94 72 75 92 q 143 40 114 53 q 200 26 172 26 q 349 72 281 26 q 456 186 417 118 q 494 313 494 254 q 471 400 494 356 q 404 471 449 443 q 299 500 359 500 q 238 495 250 500 q 198 477 225 491 q 132 455 171 462 q 175 524 134 482 q 310 649 216 565 q 432 768 403 733 l 200 768 q 142 761 162 768 q 106 743 121 753 q 83 732 91 732 q 51 761 71 732 q 31 803 31 790 l 31 803 z "},"4":{"ha":757,"x_min":-15,"x_max":733,"o":"m -15 215 q 78 521 8 383 q 267 757 147 659 q 554 896 388 854 q 519 810 540 869 q 475 674 497 752 q 439 507 454 596 q 424 337 424 418 q 476 311 424 311 q 513 312 487 311 q 557 314 538 314 q 645 330 605 314 q 685 383 685 346 q 676 401 685 394 q 655 414 667 409 q 635 422 643 419 q 657 463 650 456 q 685 471 664 471 q 718 451 702 471 q 733 412 733 431 q 696 314 733 347 q 612 271 659 281 q 506 258 566 262 q 437 246 446 254 q 452 155 437 227 q 486 13 467 82 q 374 -32 439 -1 q 349 109 354 74 q 342 180 344 144 q 332 270 340 217 q 155 257 223 270 q -15 215 87 244 l -15 215 m 467 826 q 220 627 312 745 q 93 421 127 509 q 52 294 59 333 q 156 327 110 322 q 266 334 203 333 q 340 347 330 336 q 348 426 340 368 q 384 592 356 485 q 467 826 413 699 l 467 826 z "},"5":{"ha":663,"x_min":15,"x_max":604,"o":"m 461 932 l 515 932 q 549 913 538 924 q 560 869 560 902 q 500 798 560 815 q 382 781 440 781 q 282 789 336 781 q 203 807 227 797 l 149 807 l 149 603 q 153 594 151 598 q 158 585 156 589 q 232 636 207 619 q 283 659 257 654 q 372 664 308 664 q 546 590 488 664 q 604 407 604 516 q 551 206 604 299 q 406 60 498 114 q 203 5 314 5 q 60 43 104 5 q 15 139 15 80 q 36 190 15 171 q 87 210 57 210 q 141 194 130 210 q 153 139 152 178 q 125 137 151 138 q 89 127 100 135 q 78 95 78 118 q 113 56 78 80 q 203 32 148 32 q 326 58 269 32 q 426 130 383 84 q 492 235 469 176 q 515 361 515 295 q 492 479 515 423 q 424 569 469 534 q 318 603 379 603 q 230 586 251 603 q 179 528 209 568 q 114 486 149 487 l 114 861 l 354 861 q 379 852 362 858 q 412 847 395 847 q 464 903 464 847 q 461 932 464 909 l 461 932 z "},"6":{"ha":644,"x_min":13,"x_max":585,"o":"m 13 412 q 51 584 13 503 q 150 728 89 666 q 277 824 211 790 q 396 858 342 858 q 461 844 430 858 q 511 808 492 831 q 530 761 530 785 q 509 706 530 723 q 424 689 487 689 q 421 698 422 693 q 419 707 420 703 q 441 747 433 733 q 451 761 450 760 q 439 788 451 772 q 406 813 427 803 q 361 824 385 824 q 236 772 296 824 q 139 627 176 720 q 103 422 103 535 q 132 242 103 329 q 219 101 160 156 q 361 47 277 47 q 454 81 413 47 q 517 166 494 114 q 539 271 539 218 q 485 413 539 351 q 353 475 432 475 q 300 468 320 475 q 266 449 279 461 q 243 420 254 437 q 222 386 233 404 q 167 420 179 407 q 156 449 156 433 q 181 496 156 471 q 247 539 206 522 q 335 556 288 556 q 522 480 460 556 q 585 288 585 404 q 557 154 585 223 q 469 40 529 86 q 317 -7 408 -7 q 140 65 209 -7 q 42 236 72 138 q 13 412 13 334 l 13 412 z "},"7":{"ha":593,"x_min":18,"x_max":549,"o":"m 19 789 q 19 804 19 795 q 18 817 18 813 q 27 841 18 832 q 66 857 37 850 q 154 869 95 864 q 228 861 181 866 q 322 851 275 856 q 396 843 369 846 q 454 852 406 843 q 549 861 501 861 q 475 769 542 851 q 351 604 408 687 q 255 427 295 520 q 215 243 215 333 q 227 160 215 192 q 271 74 239 127 q 217 33 238 46 q 172 1 195 20 q 109 199 109 82 q 135 346 109 273 q 205 484 162 418 q 321 646 247 549 q 414 771 395 743 l 172 771 q 124 769 143 771 q 92 763 105 767 q 52 749 79 760 q 19 736 26 739 l 19 789 l 19 789 z "},"8":{"ha":632,"x_min":11,"x_max":583,"o":"m 11 682 q 65 808 11 767 q 190 858 119 848 q 375 870 261 867 q 531 882 490 873 q 474 813 503 837 q 406 789 446 789 l 182 789 q 108 753 151 789 q 65 673 65 717 q 113 588 65 623 q 215 537 160 554 q 280 521 269 521 q 333 541 300 521 q 390 592 366 560 q 414 655 414 623 q 405 698 414 673 q 396 722 396 723 q 440 726 411 726 q 479 707 465 726 q 493 664 493 689 q 477 612 493 632 q 424 564 461 592 q 368 512 388 536 q 426 475 379 498 q 503 432 472 452 q 558 370 533 411 q 583 262 583 328 q 540 126 583 185 q 427 36 497 67 q 280 4 357 4 q 154 32 214 4 q 57 115 94 60 q 21 243 21 169 q 38 333 21 296 q 79 392 55 370 q 141 438 103 414 q 190 472 179 463 q 103 528 156 501 q 30 583 50 556 q 11 682 11 611 l 11 682 m 271 440 q 201 414 245 440 q 124 342 157 388 q 92 243 92 297 q 151 103 92 158 q 289 48 210 48 q 364 70 319 48 q 443 133 409 92 q 476 227 476 174 q 437 345 476 297 q 347 417 397 393 q 271 440 297 440 l 271 440 z "},"9":{"ha":657,"x_min":-1,"x_max":604,"o":"m 35 557 q 66 704 35 636 q 156 812 97 772 q 292 851 215 851 q 462 793 391 851 q 569 640 533 734 q 604 440 604 545 q 563 222 604 327 q 450 36 521 118 q 290 -92 378 -46 q 114 -139 202 -139 q -1 -67 -1 -139 q 25 -22 -1 -48 l 78 -22 q 83 -80 78 -63 q 102 -100 89 -96 q 150 -104 115 -104 q 284 -67 219 -104 q 399 37 348 -31 q 478 194 449 104 q 507 388 507 284 q 480 566 507 468 q 397 736 454 664 q 257 807 341 807 q 173 780 215 807 q 104 702 131 753 q 78 583 78 650 q 101 475 78 532 q 167 380 124 418 q 265 341 211 341 q 325 367 296 341 q 354 424 354 393 q 352 447 354 431 q 350 476 350 464 q 375 479 366 479 q 443 388 443 479 q 394 299 443 336 q 274 262 345 262 q 166 292 221 262 q 72 389 110 322 q 35 557 35 455 l 35 557 z "}," ":{"ha":367,"x_min":0,"x_max":0,"o":""},"!":{"ha":285,"x_min":15,"x_max":236,"o":"m 15 979 l 157 979 l 157 461 l 157 351 q 186 313 165 338 q 236 271 207 288 q 175 270 218 270 q 113 270 150 270 q 70 271 76 271 q 69 339 70 294 q 68 408 68 385 q 70 605 68 480 q 71 779 71 730 q 70 881 71 850 q 62 935 68 922 q 15 979 55 948 l 15 979 m 60 -47 q 89 16 60 -10 q 147 42 118 42 q 209 16 182 42 q 236 -47 236 -10 q 211 -102 236 -78 q 147 -126 186 -126 q 60 -47 60 -126 l 60 -47 z "},"#":{"ha":1132,"x_min":103,"x_max":1072,"o":"m 114 608 q 121 654 121 636 q 114 678 121 669 q 108 696 108 687 q 115 736 108 710 l 159 736 q 183 668 183 697 q 171 631 183 644 q 151 615 159 618 q 140 597 145 602 q 135 592 135 593 q 143 555 135 593 q 186 489 155 489 q 210 495 195 489 q 230 502 225 502 q 240 494 235 502 q 279 469 243 486 q 322 453 316 453 q 314 479 319 461 q 310 515 310 497 q 326 554 310 545 q 361 563 350 563 q 385 550 377 563 q 389 533 389 544 q 387 502 389 528 q 385 453 385 475 q 434 464 414 457 q 468 471 454 471 q 503 468 472 471 q 509 488 506 478 q 515 508 512 498 q 482 511 499 510 q 449 514 465 512 q 493 541 472 535 q 546 547 514 547 q 544 547 545 547 q 543 543 543 546 q 590 488 543 530 l 590 422 q 573 432 578 424 q 560 457 567 440 q 546 476 553 475 q 525 454 531 471 q 518 426 519 436 q 439 420 469 426 q 407 410 410 415 q 402 325 405 376 q 400 274 400 274 q 408 270 400 270 q 432 272 412 270 q 468 275 452 275 q 458 235 466 246 q 418 225 450 225 q 404 205 412 225 q 396 175 396 185 q 415 148 402 161 q 435 127 429 135 q 440 100 440 119 q 426 73 439 89 q 388 29 413 56 q 350 -15 362 2 q 337 -47 337 -33 q 340 -58 337 -54 q 351 -74 346 -66 q 362 -90 357 -82 q 347 -99 355 -94 q 332 -107 340 -103 q 299 -58 299 -78 q 312 -44 304 -57 q 321 3 321 -32 q 318 36 321 12 q 264 -43 264 -26 q 266 -54 264 -50 q 275 -67 269 -59 q 290 -89 281 -76 q 258 -81 274 -85 q 225 -74 241 -77 q 235 15 225 -1 q 267 42 245 31 q 289 89 289 54 q 285 111 289 105 q 272 126 281 117 q 259 147 263 135 q 254 183 254 159 q 260 247 254 213 q 245 343 260 282 q 230 437 230 404 q 192 451 230 449 q 128 469 154 454 q 103 536 103 484 q 114 608 103 563 l 114 608 m 358 182 q 339 115 349 149 q 319 47 329 81 q 359 67 325 49 q 397 89 394 85 q 396 124 396 103 q 389 156 396 144 q 358 182 383 169 l 358 182 m 503 -137 q 483 -129 496 -134 q 465 -124 470 -124 q 521 -25 465 -121 q 655 206 577 72 q 767 396 733 339 q 734 407 750 401 q 701 418 718 413 q 694 497 698 458 q 687 576 691 537 q 712 580 694 577 q 767 593 729 583 q 865 531 778 531 q 890 532 879 531 q 905 535 901 534 q 908 507 906 521 q 910 479 909 493 q 794 424 843 479 q 838 340 812 390 q 929 166 864 290 q 1024 -18 994 41 q 1072 -110 1055 -77 q 1051 -121 1062 -115 q 1030 -132 1041 -126 q 966 13 1007 -80 q 883 198 924 106 q 818 343 841 291 q 829 220 822 299 q 843 63 836 142 q 854 -60 850 -15 l 826 -60 q 809 66 820 -14 q 788 228 799 147 q 771 354 777 309 q 689 204 741 300 q 585 13 637 109 q 503 -137 532 -83 l 503 -137 m 604 -188 q 642 -178 623 -183 q 681 -168 662 -173 q 679 -164 680 -166 q 676 -160 677 -162 q 627 -169 652 -164 q 578 -179 603 -174 q 614 -211 596 -195 q 650 -243 632 -227 q 611 -251 630 -247 q 571 -258 591 -255 q 573 -266 572 -262 q 575 -274 574 -270 q 631 -262 603 -268 q 687 -251 659 -257 q 646 -219 667 -235 q 604 -188 625 -203 l 604 -188 m 786 -240 q 770 -214 778 -227 q 753 -188 761 -201 q 751 -185 752 -186 q 749 -183 750 -184 q 766 -225 758 -204 q 783 -267 775 -246 q 805 -240 794 -253 q 828 -214 817 -227 q 853 -240 840 -227 q 878 -267 865 -253 q 896 -223 887 -244 q 915 -179 906 -201 q 910 -176 912 -177 q 904 -172 907 -174 q 889 -204 897 -188 q 873 -236 881 -220 q 847 -212 860 -224 q 821 -188 834 -200 q 803 -214 812 -201 q 786 -240 795 -227 l 786 -240 z "},"$":{"ha":606,"x_min":7,"x_max":557,"o":"m 292 773 l 336 773 q 358 729 337 742 q 420 704 378 716 q 483 676 463 692 q 504 624 504 661 q 482 563 504 581 q 428 541 459 546 q 366 532 396 537 q 336 508 336 527 q 370 475 336 489 q 450 443 404 461 q 527 391 497 425 q 557 296 557 357 q 531 212 557 250 q 468 146 506 174 q 395 100 431 118 q 332 67 360 81 q 321 33 323 60 q 316 -6 319 6 q 296 -21 313 -18 q 278 15 292 -16 q 250 52 265 47 q 176 71 231 59 q 87 97 121 83 q 30 138 54 110 q 7 215 7 166 q 21 266 7 234 q 73 323 35 297 q 176 349 111 349 q 215 344 184 349 q 260 339 245 339 q 283 349 283 339 q 260 399 283 385 q 181 432 236 413 q 98 478 126 450 q 70 563 70 505 q 98 642 70 615 q 184 692 127 670 q 265 728 241 714 q 292 773 289 741 l 292 773 m 270 686 q 179 658 210 678 q 149 597 149 639 q 265 518 149 527 q 278 618 278 557 q 270 686 278 661 l 270 686 m 345 674 q 378 681 372 681 q 387 679 378 681 q 415 676 395 676 q 416 642 415 657 q 417 625 417 626 q 403 585 417 609 q 386 579 389 579 q 365 595 371 579 q 353 640 358 612 q 345 674 348 668 l 345 674 m 340 390 q 331 328 334 349 q 326 293 328 307 q 325 256 325 280 q 329 114 325 222 q 419 175 386 142 q 465 235 453 209 q 478 270 478 261 q 340 390 478 332 l 340 390 m 149 278 q 84 253 116 278 q 52 207 52 228 q 107 131 52 161 q 213 101 162 101 q 271 108 271 101 q 268 120 271 111 q 265 136 265 128 q 267 144 265 142 q 268 150 268 146 q 265 180 268 164 q 233 175 249 175 q 200 184 218 175 q 172 196 181 194 q 183 212 173 210 q 210 217 193 214 q 243 243 227 221 q 205 266 234 255 q 149 278 177 278 l 149 278 z "},"&":{"ha":928,"x_min":8,"x_max":872,"o":"m 8 475 q 44 662 8 571 q 142 821 80 752 q 284 930 204 891 q 450 969 364 969 q 616 933 542 969 q 691 826 691 897 q 657 753 691 770 q 576 736 623 736 q 489 757 529 736 q 432 807 449 778 q 498 801 464 801 q 585 835 585 801 q 564 873 585 854 q 507 903 543 891 q 424 915 470 915 q 324 889 379 915 q 220 815 269 863 q 140 697 171 767 q 109 547 109 628 q 117 461 109 497 q 246 564 165 515 q 440 628 328 613 q 560 638 465 631 q 705 655 655 646 q 786 685 755 664 q 818 745 818 706 q 813 774 818 767 q 796 784 808 781 q 778 793 784 788 q 811 838 781 838 q 820 837 816 838 q 826 835 825 836 q 872 763 872 835 q 815 644 872 689 q 669 577 759 598 q 475 553 579 557 q 308 524 387 549 q 179 457 229 499 q 126 368 129 416 q 150 285 126 336 q 218 182 173 233 q 329 96 263 130 q 478 62 395 62 q 579 79 535 62 q 653 127 623 96 q 697 199 682 158 q 711 286 711 239 q 686 379 711 335 q 618 449 662 423 q 521 475 575 475 q 445 454 480 475 q 389 398 410 433 q 368 322 368 363 q 397 242 368 274 q 478 211 426 211 q 576 313 533 216 q 540 197 576 234 q 450 160 503 160 q 374 180 410 160 q 318 238 339 201 q 297 322 297 276 q 324 409 297 360 q 406 494 351 458 q 539 529 460 529 q 614 512 571 529 q 697 460 656 494 q 765 374 739 426 q 792 258 792 323 q 753 130 792 192 q 638 29 714 68 q 458 -10 562 -10 q 229 54 332 -10 q 67 229 125 118 q 8 475 8 340 l 8 475 z "},"'":{"ha":253,"x_min":21,"x_max":201,"o":"m 21 871 q 46 923 21 896 q 113 951 70 951 q 201 836 201 951 q 174 734 201 773 q 99 696 146 696 q 67 700 84 696 q 100 725 93 716 q 121 754 108 733 q 72 786 102 770 q 31 817 41 802 q 21 871 21 832 l 21 871 z "},",":{"ha":258,"x_min":15,"x_max":201,"o":"m 15 84 q 41 153 15 123 q 104 183 67 183 q 201 58 201 183 q 182 -24 201 7 q 122 -85 162 -55 l 60 -85 q 84 -64 70 -73 q 103 -46 97 -55 q 108 -14 108 -37 q 39 23 63 2 q 15 84 15 44 l 15 84 z "},"-":{"ha":397,"x_min":14,"x_max":333,"o":"m 256 508 q 279 512 268 508 q 310 525 290 515 q 333 536 331 535 q 303 455 333 482 q 229 428 274 428 q 216 433 231 428 q 179 442 201 438 q 125 446 156 446 q 14 433 71 446 q 48 507 24 487 q 111 528 73 528 q 185 518 136 528 q 256 508 234 508 l 256 508 z "},".":{"ha":240,"x_min":15,"x_max":194,"o":"m 15 90 q 41 154 15 130 q 104 179 67 179 q 173 154 153 179 q 194 90 194 128 q 166 27 194 53 q 104 0 138 0 q 43 27 70 0 q 15 90 15 55 l 15 90 z "},":":{"ha":253,"x_min":15,"x_max":201,"o":"m 24 425 q 49 491 24 468 q 113 514 74 514 q 176 483 151 514 q 201 416 201 452 q 192 389 201 408 q 161 353 182 369 q 104 336 140 336 q 45 360 65 336 q 24 425 24 384 l 24 425 m 15 78 q 41 131 15 102 q 113 160 67 160 q 193 70 193 160 q 104 -10 193 -10 q 35 19 56 -10 q 15 78 15 47 l 15 78 z "},";":{"ha":253,"x_min":7,"x_max":193,"o":"m 7 429 q 30 489 7 460 q 96 518 54 518 q 154 495 124 518 q 184 429 184 472 q 160 368 184 395 q 87 340 135 340 q 29 366 52 340 q 7 429 7 392 l 7 429 m 7 90 q 19 139 7 116 q 51 175 31 161 q 96 189 72 189 q 134 177 111 189 q 175 138 158 164 q 193 74 193 112 q 173 -3 193 31 q 131 -57 154 -36 q 104 -78 108 -78 l 50 -78 q 55 -73 52 -76 q 60 -69 57 -71 q 104 -15 80 -49 q 54 13 83 0 q 16 39 25 26 q 7 90 7 53 l 7 90 z "},"?":{"ha":632,"x_min":11,"x_max":578,"o":"m 11 721 q 48 821 11 772 q 157 902 84 870 q 331 933 229 933 q 514 878 451 933 q 578 729 578 823 q 537 575 578 634 q 414 456 497 515 q 301 365 332 396 q 270 278 270 334 q 304 172 270 236 q 225 136 255 136 q 193 177 205 136 q 181 260 181 218 q 220 376 181 328 q 339 489 260 425 q 458 604 418 553 q 499 729 499 656 q 435 857 499 808 q 286 907 372 907 q 170 876 225 907 q 81 801 114 845 q 47 721 47 756 q 74 673 47 700 q 136 646 100 646 q 185 693 185 646 q 174 747 185 719 q 183 749 177 748 q 201 750 190 750 q 270 686 270 750 q 226 619 270 641 q 136 597 182 597 q 53 635 95 597 q 11 721 11 673 l 11 721 m 181 -111 q 204 -53 181 -83 q 270 -22 227 -22 q 329 -50 302 -22 q 357 -111 357 -78 q 328 -174 357 -147 q 270 -200 298 -200 q 209 -176 238 -200 q 181 -111 181 -152 l 181 -111 z "},"A":{"ha":940,"x_min":-6,"x_max":896,"o":"m 354 655 q 887 928 546 928 q 853 818 853 869 l 853 90 q 859 57 853 71 q 878 24 865 43 q 896 -10 890 4 l 715 -10 q 733 29 720 3 q 751 74 745 56 q 757 114 757 92 q 703 303 757 205 q 564 479 649 401 q 396 593 480 558 q 359 527 384 576 q 310 381 335 478 q 286 162 286 285 q 301 47 286 97 q 336 -34 316 -3 q 382 -95 356 -65 q 414 -137 408 -125 q 331 -187 384 -156 q 268 -223 279 -218 q 263 -79 268 -133 q 247 31 258 -25 q 234 110 237 87 q 231 189 231 133 q 256 414 231 318 q 319 600 281 511 q 301 603 312 601 q 283 606 290 605 q 269 608 277 607 q 250 608 261 608 q 129 586 181 608 q 76 518 76 564 q 91 495 76 509 q 113 480 105 480 q 130 495 118 485 q 147 517 141 506 q 164 471 164 494 q 137 419 164 440 q 76 398 110 398 q 18 433 41 398 q -6 492 -6 467 q 67 619 -6 574 q 249 664 139 664 q 286 663 274 664 q 455 625 381 657 q 577 553 528 594 q 680 456 627 512 q 751 383 733 399 l 751 836 q 741 847 749 841 q 715 854 732 854 q 544 778 631 854 q 417 643 457 703 q 385 649 401 646 q 354 655 370 652 l 354 655 z "},"B":{"ha":865,"x_min":11,"x_max":824,"o":"m 11 694 q 53 798 11 738 q 179 901 94 858 q 386 944 264 944 q 549 915 471 944 q 677 829 628 886 q 726 694 726 772 q 716 627 726 654 q 692 583 706 600 q 665 549 679 566 q 701 525 668 545 q 759 480 733 505 q 804 408 784 455 q 824 293 824 361 q 798 176 824 247 q 714 34 771 105 q 558 -86 656 -37 q 323 -135 459 -135 q 180 -112 249 -135 q 66 -40 111 -90 q 21 87 21 9 q 45 179 21 138 q 118 221 70 221 q 154 204 136 221 q 172 160 172 186 q 164 133 172 143 q 136 105 156 122 q 101 132 110 132 q 64 70 64 132 q 91 1 64 39 q 172 -63 118 -37 q 297 -90 225 -90 q 502 -35 408 -90 q 652 112 597 19 q 707 311 707 205 q 682 422 707 362 q 612 496 657 481 q 568 458 593 484 q 519 421 542 433 q 457 410 496 410 q 409 423 433 410 q 386 471 386 436 q 414 541 386 526 q 500 562 443 556 q 588 589 558 568 q 618 676 618 611 q 582 790 618 741 q 486 865 545 839 q 360 891 427 891 q 242 868 310 891 q 123 804 173 845 q 74 712 74 763 q 81 694 74 701 q 101 682 87 688 q 136 665 114 676 q 122 626 131 636 q 83 615 114 615 q 11 694 11 615 l 11 694 m 172 712 q 223 752 182 723 q 351 825 264 781 q 338 773 351 824 q 320 690 326 721 q 314 632 314 658 l 314 70 q 334 44 314 67 q 368 -1 354 21 l 172 -1 q 200 34 183 16 q 221 65 216 53 q 227 105 227 77 l 227 642 q 209 669 222 650 q 172 712 195 689 l 172 712 m 440 474 q 437 485 437 478 q 458 512 437 499 q 506 524 479 524 q 537 517 525 524 q 512 481 537 499 q 464 464 486 464 q 440 474 446 464 l 440 474 z "},"C":{"ha":871,"x_min":7,"x_max":856,"o":"m 597 881 q 621 907 606 881 q 646 948 635 932 q 685 980 657 964 q 757 996 712 996 q 822 971 789 996 q 856 907 856 946 q 847 886 856 895 q 827 870 838 877 q 807 858 815 863 q 786 917 795 900 q 766 939 777 935 q 730 943 755 943 q 691 929 712 943 q 656 888 670 915 q 642 826 642 862 q 669 746 642 794 q 618 720 643 729 q 569 827 599 788 q 498 881 538 866 q 400 897 457 897 q 240 840 307 897 q 139 695 173 784 q 105 514 105 606 q 151 298 105 406 q 280 121 196 190 q 472 52 364 52 q 548 71 494 52 q 644 124 602 90 q 687 201 687 158 q 671 230 686 221 q 622 246 656 239 q 678 300 632 300 q 715 279 701 300 q 730 219 730 258 q 700 125 730 177 q 600 34 669 73 q 428 -4 532 -4 q 262 35 339 -4 q 127 143 185 74 q 38 299 70 211 q 7 479 7 387 q 27 613 7 535 q 94 766 47 690 q 223 892 141 842 q 419 943 304 943 q 483 932 459 943 q 544 901 508 922 q 597 881 580 881 l 597 881 z "},"D":{"ha":903,"x_min":6,"x_max":853,"o":"m 6 642 q 36 768 7 711 q 118 868 65 826 q 241 931 170 909 q 397 953 313 953 q 571 920 488 953 q 718 827 654 887 q 817 684 781 766 q 853 507 853 603 q 779 254 853 354 q 605 103 706 154 q 411 31 504 52 q 272 -1 318 9 l 183 -1 q 220 64 210 24 q 234 174 231 105 q 236 404 236 243 q 117 440 157 424 q 41 504 77 456 q 6 642 6 552 l 6 642 m 389 910 q 209 872 288 910 q 85 774 129 834 q 40 650 40 714 q 70 539 40 585 q 145 471 100 494 q 235 449 191 449 q 236 531 236 479 q 227 675 236 635 q 211 721 217 715 q 251 760 211 742 q 326 785 291 779 q 304 634 304 744 q 308 533 304 584 q 315 458 313 481 q 426 504 374 467 q 479 583 479 540 q 443 616 479 616 q 426 616 438 616 q 407 615 414 615 q 426 659 411 633 q 468 686 440 686 q 544 587 544 686 q 507 492 544 531 q 417 431 469 453 q 308 393 365 408 q 309 232 308 289 q 311 149 310 175 q 312 119 312 124 q 309 105 312 116 q 298 62 305 95 q 443 96 346 66 q 636 228 539 126 q 736 517 733 329 q 688 730 736 641 q 559 865 639 820 q 389 910 480 910 l 389 910 z "},"E":{"ha":878,"x_min":17,"x_max":854,"o":"m 17 479 q 48 664 17 575 q 137 822 79 752 q 277 931 196 892 q 453 971 357 971 q 601 938 533 971 q 668 838 668 904 q 649 779 668 791 q 587 765 630 767 l 543 765 q 555 791 546 773 q 566 817 564 809 q 569 838 569 826 q 544 880 569 862 q 482 907 518 898 q 418 917 446 917 q 273 877 339 917 q 164 767 208 837 q 104 614 120 697 q 100 554 100 587 q 103 494 100 522 q 107 453 105 465 q 186 510 140 473 q 267 568 233 547 q 365 609 300 588 q 535 649 430 631 q 624 658 564 650 q 742 693 683 666 q 801 765 801 719 q 793 794 801 786 q 771 811 785 802 q 757 828 757 819 q 770 855 757 845 q 801 864 783 864 q 841 839 827 864 q 854 792 854 813 q 762 638 854 687 q 487 551 669 590 q 218 476 305 513 q 132 354 132 440 q 185 232 132 302 q 318 112 239 162 q 468 62 397 62 q 497 65 478 62 q 598 88 562 77 q 660 118 633 98 q 702 171 687 137 q 721 257 717 204 q 758 227 750 239 q 765 186 765 215 q 725 100 765 144 q 614 26 684 56 q 463 -3 544 -3 q 279 34 361 -3 q 137 139 196 72 q 47 294 78 206 q 17 479 17 381 l 17 479 z "},"F":{"ha":789,"x_min":11,"x_max":761,"o":"m 689 986 q 703 1006 689 996 q 726 1021 717 1016 q 751 1004 742 1021 q 761 960 761 986 q 737 903 761 932 q 670 854 713 873 q 574 835 627 835 q 536 838 551 835 q 477 854 522 842 q 401 872 432 866 q 336 878 371 878 q 257 869 300 878 l 257 633 q 324 627 303 630 q 356 622 346 624 q 389 614 366 620 q 449 603 412 609 q 528 620 493 603 q 564 665 564 638 q 561 677 564 673 q 548 689 557 682 q 529 706 538 697 q 574 718 538 718 q 604 715 596 718 q 612 701 612 712 q 610 683 612 697 q 407 531 570 531 q 363 533 386 531 q 303 541 339 535 q 257 549 267 547 l 257 76 q 280 42 257 73 q 314 -5 303 12 l 110 -5 q 129 20 116 3 q 148 49 142 36 q 154 76 154 61 l 154 556 q 119 552 137 554 q 86 542 100 550 q 61 512 73 534 q 42 451 50 490 q 24 468 24 469 q 27 474 25 468 q 29 494 29 479 q 40 567 29 540 q 68 606 51 593 q 108 626 86 618 q 154 642 130 633 l 154 735 q 150 835 154 819 q 94 816 108 827 q 59 778 80 805 q 11 736 37 752 l 11 790 q 360 951 142 951 q 457 940 396 951 q 587 912 517 928 q 663 896 657 896 q 701 913 675 896 q 726 942 726 929 q 707 970 726 956 q 689 986 689 984 l 689 986 z "},"G":{"ha":833,"x_min":5,"x_max":783,"o":"m 658 993 q 688 1009 671 1002 q 711 1019 704 1017 q 756 991 730 1019 q 783 948 783 964 q 649 858 783 858 q 599 864 625 858 q 534 880 573 869 q 467 897 495 891 q 411 903 438 903 q 257 854 328 903 q 145 720 187 806 q 104 528 104 634 q 164 290 104 400 q 324 115 224 180 q 536 50 424 50 q 649 74 595 50 q 612 251 612 154 l 612 502 q 558 511 570 511 q 547 506 553 511 q 524 502 541 502 q 483 507 500 502 q 447 524 467 513 q 413 540 427 535 q 380 546 399 546 q 336 510 336 546 q 369 480 336 480 q 387 482 377 480 q 398 483 398 483 l 398 439 l 326 439 q 304 465 308 456 q 300 502 300 474 q 336 577 300 546 q 417 608 372 608 q 485 593 443 608 q 555 571 528 578 q 630 564 581 564 q 684 569 650 564 q 746 574 719 574 q 735 554 745 572 q 718 521 725 536 q 711 493 711 505 l 711 314 q 722 192 711 245 q 755 74 733 138 q 653 25 692 39 q 577 6 614 10 q 479 1 540 1 q 290 38 377 1 q 140 142 203 76 q 42 296 77 208 q 5 483 7 383 q 61 695 5 589 q 210 869 116 802 q 417 937 305 937 q 524 916 470 926 q 630 894 577 905 q 672 903 652 894 q 693 929 693 912 q 680 955 693 942 q 658 993 667 969 l 658 993 z "},"H":{"ha":939,"x_min":7,"x_max":899,"o":"m 703 943 l 890 943 q 869 915 883 932 q 850 890 855 898 q 846 871 846 883 l 846 87 q 860 65 846 82 q 899 7 875 48 l 712 7 q 726 35 720 25 q 741 53 733 44 q 753 71 749 62 q 757 96 757 79 l 757 657 q 686 642 741 657 q 600 626 630 626 q 473 635 511 626 q 395 662 435 643 q 313 687 355 680 q 314 553 314 672 q 313 300 314 441 q 311 87 312 159 q 335 49 319 74 q 364 7 351 23 q 214 -3 343 -3 l 176 -3 l 176 17 q 199 39 188 28 q 222 61 211 50 l 222 371 q 221 681 222 681 q 122 656 155 681 q 89 594 89 632 q 96 562 89 573 q 113 545 104 550 q 142 533 123 540 q 119 497 126 505 q 79 489 111 489 q 30 519 53 489 q 7 586 7 549 q 46 676 19 645 q 110 720 73 707 q 214 744 148 733 q 206 854 214 818 q 168 935 198 890 l 346 935 q 310 814 310 879 q 311 779 310 803 q 311 739 311 754 q 405 710 348 729 q 499 683 463 691 q 578 675 535 675 q 679 688 633 675 q 744 721 725 701 q 746 758 744 734 q 747 800 747 781 q 745 862 747 846 q 735 892 743 879 q 703 943 728 905 l 703 943 z "},"I":{"ha":271,"x_min":15,"x_max":211,"o":"m 15 936 q 96 944 67 944 q 149 941 116 944 q 193 936 182 937 q 170 903 191 928 q 149 854 149 877 l 149 96 q 167 76 153 93 q 211 11 182 59 q 61 3 140 3 l 15 3 q 43 48 24 19 q 62 83 62 76 l 62 860 q 15 936 62 873 l 15 936 z "},"J":{"ha":290,"x_min":-146,"x_max":215,"o":"m 15 935 q 56 936 29 936 q 114 934 80 936 q 166 932 148 932 q 215 935 179 932 q 193 906 201 917 q 180 886 185 896 q 175 867 175 877 l 175 258 q 183 183 175 203 q 215 136 192 163 q 146 60 183 119 q 78 -49 109 1 q 11 -134 48 -100 q -75 -169 -26 -169 q -124 -149 -102 -168 q -146 -107 -146 -130 q -133 -79 -146 -96 q -101 -62 -121 -62 q -81 -71 -89 -62 q -66 -99 -73 -80 q -57 -125 -60 -118 q 82 375 82 -86 l 82 486 q 76 829 82 689 q 15 935 76 855 l 15 935 z "},"K":{"ha":865,"x_min":7,"x_max":821,"o":"m 497 907 q 503 925 499 912 q 517 949 508 937 q 544 969 527 961 q 586 978 561 978 q 655 944 625 978 q 685 843 685 910 q 657 744 685 786 q 592 676 630 702 q 510 631 553 650 q 429 594 468 611 q 535 449 505 534 q 588 227 565 363 q 644 15 611 90 q 757 -97 676 -60 q 762 -56 757 -70 q 785 -43 768 -43 q 809 -48 797 -43 q 821 -82 821 -54 q 810 -117 821 -105 q 765 -129 800 -129 q 597 -35 660 -129 q 497 195 534 59 q 427 449 459 332 q 354 567 394 567 q 262 527 328 563 q 158 451 196 491 l 158 272 l 158 183 q 167 91 159 121 q 199 34 176 61 q 229 -4 222 7 l 7 -4 q 30 18 15 6 q 53 43 44 30 q 68 87 61 56 l 68 782 q 15 933 68 867 l 201 933 q 179 902 194 921 q 159 867 164 882 q 154 817 154 851 q 157 529 154 582 q 336 635 207 571 q 526 740 465 700 q 586 835 586 781 q 566 882 586 871 q 497 907 547 894 l 497 907 z "},"L":{"ha":764,"x_min":1,"x_max":718,"o":"m 33 938 q 138 939 86 938 q 243 940 191 940 q 205 885 213 905 q 197 838 197 865 l 197 233 q 182 166 193 208 q 156 112 171 125 q 260 121 217 121 q 329 115 303 121 q 410 95 354 110 q 515 72 466 80 q 595 99 560 72 q 651 162 630 126 q 671 225 671 199 q 634 330 671 285 q 540 379 597 374 q 463 359 484 379 q 443 314 443 338 q 511 272 443 272 q 494 227 507 239 q 443 215 481 215 q 377 255 400 215 q 354 332 354 296 q 369 376 354 348 q 420 426 384 404 q 514 449 456 449 q 608 423 561 449 q 686 347 655 398 q 718 225 718 296 q 682 96 718 148 q 590 18 647 43 q 469 -7 533 -7 q 423 -2 447 -7 q 348 16 400 3 q 259 36 296 29 q 189 43 222 43 q 76 3 115 43 q 1 67 65 3 q 99 225 99 164 l 99 826 q 95 854 99 844 q 70 889 91 864 q 33 938 50 914 l 33 938 z "},"M":{"ha":985,"x_min":7,"x_max":939,"o":"m 618 907 l 822 907 q 793 879 804 889 q 779 863 783 869 q 775 848 775 857 q 778 826 775 842 q 821 468 798 671 q 856 188 844 264 q 886 70 868 112 q 939 5 904 27 q 868 4 922 4 q 798 5 832 4 q 749 5 764 5 q 771 41 766 31 q 778 92 775 51 q 747 301 767 168 q 709 569 728 435 q 678 779 689 703 q 572 673 650 757 q 493 579 493 588 q 509 548 493 573 q 539 500 525 524 q 564 444 552 477 q 575 375 575 411 q 543 267 575 318 q 441 215 511 215 q 377 239 405 215 q 332 301 348 263 q 317 375 317 339 q 332 440 317 390 q 371 531 347 489 q 289 628 341 564 q 214 740 238 692 q 191 537 205 667 q 163 278 177 408 q 140 75 149 148 q 144 43 141 55 q 154 22 148 31 q 166 4 160 14 q 124 3 160 3 q 60 3 102 3 q 7 4 17 4 q 40 48 28 19 q 63 154 52 77 q 94 434 74 231 q 132 826 114 638 q 124 859 132 846 q 105 881 117 872 q 83 899 94 890 q 184 902 120 901 q 285 904 249 903 q 252 871 266 889 q 237 844 237 853 q 446 616 237 831 q 577 747 536 707 q 634 804 617 787 q 656 830 650 822 q 663 844 663 838 q 618 907 663 860 l 618 907 m 424 474 q 381 431 393 450 q 370 368 370 413 q 387 306 371 334 q 433 278 404 278 q 470 302 454 278 q 486 349 486 326 q 475 413 486 393 q 424 474 464 434 l 424 474 z "},"N":{"ha":808,"x_min":4,"x_max":767,"o":"m 519 919 l 687 919 q 667 893 680 909 q 648 866 653 877 q 643 840 643 856 q 658 652 648 780 q 683 353 668 524 q 710 76 698 181 q 724 46 714 58 q 749 23 734 35 q 767 7 763 12 l 607 7 q 632 65 632 58 q 639 128 639 87 q 628 262 639 201 q 573 197 599 216 q 510 175 548 177 q 441 201 470 175 q 412 264 412 227 q 429 320 412 298 q 468 341 445 341 q 503 325 486 341 q 492 297 500 317 q 483 269 483 277 q 525 244 483 250 q 571 275 551 244 q 590 335 590 306 q 544 426 586 389 q 410 513 501 463 q 263 603 319 563 q 171 707 207 644 q 158 520 166 640 q 142 282 150 401 q 129 96 134 163 q 139 61 131 76 q 162 26 146 45 q 182 -1 177 7 l 4 -1 q 35 24 15 3 q 70 96 56 45 q 92 400 82 260 q 107 594 103 539 q 114 717 111 649 q 119 840 118 785 q 114 868 119 857 q 94 896 108 879 q 76 919 81 912 l 244 919 q 222 895 238 909 q 198 866 205 881 q 190 822 190 852 q 242 738 198 774 q 382 647 287 701 q 527 562 477 594 q 607 485 577 530 q 597 594 603 524 q 584 735 591 665 q 575 844 578 805 q 580 851 575 851 q 582 853 582 851 q 519 919 582 857 l 519 919 z "},"O":{"ha":821,"x_min":11,"x_max":772,"o":"m 242 817 q 272 896 242 864 q 344 943 302 928 q 419 958 386 958 q 505 941 450 958 q 622 875 561 923 q 728 731 684 827 q 772 489 772 636 q 747 314 772 400 q 671 157 722 228 q 548 44 621 86 q 384 3 475 3 q 209 56 295 3 q 67 213 122 109 q 11 463 11 318 q 33 613 11 523 q 102 778 56 703 q 218 869 149 852 q 126 699 152 786 q 100 533 100 612 q 126 374 100 454 q 198 227 151 294 q 306 121 244 160 q 437 82 368 82 q 535 108 476 82 q 644 211 594 134 q 693 426 693 289 q 652 647 693 536 q 541 826 610 757 q 393 896 471 896 q 313 826 313 896 q 329 799 313 816 q 357 782 346 782 q 374 789 359 782 q 401 799 389 796 q 385 724 401 747 q 331 701 368 701 q 267 734 293 701 q 242 817 242 768 l 242 817 z "},"P":{"ha":821,"x_min":-14,"x_max":755,"o":"m 101 839 q 210 874 138 839 q 327 927 281 910 q 454 944 373 944 q 559 925 506 944 q 656 865 611 906 q 728 757 701 824 q 755 600 755 691 q 699 376 755 483 q 556 204 642 269 q 393 140 471 140 q 308 172 347 140 q 270 256 270 204 q 333 319 270 319 q 348 318 342 319 q 357 317 355 317 q 341 287 352 301 q 331 256 331 272 q 357 213 331 234 q 428 193 384 193 q 501 219 463 193 q 574 296 540 244 q 628 421 607 347 q 649 590 649 495 q 623 738 649 664 q 547 861 598 812 q 428 910 497 910 q 332 881 379 910 q 255 811 285 853 q 225 732 225 769 l 225 -19 q 203 -101 225 -59 q 144 -169 181 -142 q 65 -196 106 -196 q 29 -184 46 -196 q 4 -160 12 -172 l 4 -117 l 75 -117 q 119 -106 109 -117 q 128 -62 128 -95 l 128 794 l 99 794 q 16 804 46 794 q -14 847 -14 814 q -3 878 -14 868 q 24 889 8 887 q 43 891 39 891 q 55 843 52 849 q 71 838 57 838 q 83 838 73 838 q 101 839 94 839 l 101 839 z "},"Q":{"ha":840,"x_min":15,"x_max":854,"o":"m 15 503 q 60 716 15 611 q 194 889 105 822 q 408 957 283 957 q 622 892 538 957 q 745 725 707 827 q 783 511 783 623 q 760 335 781 408 q 709 219 738 262 q 639 133 679 175 q 587 72 599 91 q 630 15 605 57 q 681 -57 654 -26 q 757 -111 707 -87 q 777 -102 768 -111 q 786 -78 786 -92 q 761 -36 786 -54 q 804 -24 786 -24 q 842 -42 829 -24 q 854 -87 854 -60 q 825 -137 854 -114 q 746 -160 796 -160 q 611 -102 673 -154 q 507 11 549 -50 q 447 7 490 11 q 379 3 405 3 q 238 118 238 3 q 220 102 225 110 q 215 90 216 94 q 108 192 154 121 q 39 347 63 262 q 15 503 15 433 l 15 503 m 382 912 q 234 861 293 912 q 149 730 176 810 q 122 564 122 650 q 139 416 122 488 q 178 293 157 344 q 223 197 200 242 q 248 146 247 151 q 325 182 308 175 q 357 189 342 189 q 468 169 421 189 q 533 136 515 149 q 595 192 558 136 q 658 328 632 248 q 685 475 685 408 q 656 648 685 567 q 582 788 628 729 q 483 880 536 847 q 382 912 430 912 l 382 912 m 472 78 q 417 121 450 105 q 354 137 384 137 q 301 103 307 137 q 376 50 301 50 q 472 78 436 50 l 472 78 z "},"R":{"ha":865,"x_min":6,"x_max":924,"o":"m 6 707 q 53 814 6 757 q 194 909 101 870 q 415 948 287 948 q 614 908 527 948 q 750 792 701 868 q 799 618 799 717 q 774 492 799 546 q 715 400 750 437 q 629 326 680 363 q 576 288 578 289 q 642 159 613 232 q 697 18 670 86 q 757 -84 724 -49 q 844 -118 790 -118 q 869 -103 858 -118 q 879 -60 879 -87 q 894 -64 881 -61 q 915 -75 907 -66 q 924 -104 924 -83 q 898 -144 923 -129 q 844 -160 874 -160 q 680 -113 741 -160 q 591 -1 619 -66 q 541 156 562 65 q 507 275 520 247 q 486 273 504 275 q 453 269 469 271 q 425 268 437 268 q 326 332 326 268 q 357 379 327 362 q 424 396 387 396 q 458 390 443 396 q 488 375 474 384 q 519 358 502 367 q 549 350 536 350 q 603 384 565 350 q 671 475 641 418 q 701 600 701 532 q 672 728 701 657 q 571 851 643 799 q 380 904 499 904 q 293 892 350 904 q 178 857 236 880 q 80 800 120 834 q 40 725 40 766 q 53 695 40 705 q 85 685 65 685 q 124 699 108 685 q 113 643 124 659 q 76 628 103 628 q 28 649 51 628 q 6 707 6 671 l 6 707 m 304 846 q 288 797 292 806 q 284 778 285 787 q 282 753 282 769 l 282 82 q 288 60 282 70 q 311 35 294 51 q 336 11 328 19 l 139 11 q 183 82 183 56 l 183 672 q 180 690 183 683 q 165 711 177 697 q 146 736 154 725 q 225 791 185 764 q 304 846 264 818 l 304 846 m 479 322 q 450 344 470 331 q 412 357 431 357 q 380 332 390 357 q 419 304 380 304 q 479 322 459 304 l 479 322 z "},"S":{"ha":783,"x_min":7,"x_max":739,"o":"m 158 812 q 184 879 158 843 q 262 940 210 915 q 390 965 315 965 q 523 939 459 965 q 588 857 588 913 q 564 824 588 836 q 515 812 540 812 q 507 824 507 812 q 509 842 507 827 q 511 865 511 856 q 382 938 511 938 q 279 913 328 938 q 229 848 229 888 q 320 751 229 799 q 506 657 411 704 q 670 537 601 610 q 739 349 739 464 q 686 151 739 230 q 547 36 634 73 q 354 0 460 0 q 111 66 215 0 q 7 268 7 133 q 39 369 7 319 q 133 450 72 418 q 274 482 194 482 q 380 463 329 482 q 465 408 432 445 q 497 322 497 372 q 449 221 497 254 q 337 188 401 188 q 245 212 287 188 q 203 268 203 237 q 220 316 203 302 q 270 339 237 330 q 337 249 286 249 q 400 276 376 249 q 424 331 424 304 q 373 416 424 384 q 257 447 322 447 q 157 424 205 447 q 80 356 110 400 q 50 258 50 313 q 98 136 50 186 q 220 61 146 85 q 364 36 293 36 q 512 72 441 36 q 624 169 582 107 q 667 304 667 231 q 600 462 667 399 q 404 591 533 525 q 217 701 275 658 q 158 812 158 744 l 158 812 z "},"T":{"ha":771,"x_min":14,"x_max":763,"o":"m 668 981 q 694 1017 668 1017 q 718 1013 704 1017 q 763 965 763 1000 q 688 873 761 912 q 511 834 615 834 q 441 839 477 834 l 441 64 q 447 43 441 51 q 466 19 452 35 q 486 -7 479 4 l 290 -7 q 319 34 298 11 q 340 82 340 57 q 339 317 340 167 q 338 616 339 467 q 337 851 338 766 q 301 860 326 853 q 246 871 275 867 q 174 875 217 875 q 119 867 146 875 q 75 844 92 858 q 58 812 58 830 q 121 787 58 787 q 102 748 120 765 q 67 732 85 732 q 27 754 41 732 q 14 804 14 775 q 46 870 14 836 q 144 925 78 903 q 299 947 209 947 q 409 939 364 947 q 525 917 453 932 q 629 901 597 901 q 678 913 655 901 q 700 947 700 924 q 668 981 700 968 l 668 981 z "},"U":{"ha":821,"x_min":8,"x_max":803,"o":"m 26 868 q 60 935 26 905 q 143 965 95 965 q 209 949 159 965 q 276 933 259 933 q 321 942 293 933 q 396 951 350 951 q 332 868 390 933 q 229 743 275 804 q 144 598 182 682 q 107 422 107 514 q 127 294 107 356 q 186 181 148 232 q 278 102 225 131 q 393 74 331 74 q 477 99 427 74 q 566 157 527 124 q 607 207 606 190 l 607 689 q 601 838 607 788 q 586 905 595 888 q 554 953 578 921 q 647 960 609 960 q 692 959 666 960 q 742 958 718 958 q 714 927 722 939 q 701 893 706 916 q 697 824 697 870 l 697 233 q 722 121 697 168 q 803 74 748 74 q 767 21 791 39 q 715 3 743 3 q 670 17 688 3 q 629 69 653 32 q 603 108 605 106 q 532 60 561 79 q 476 26 504 41 q 415 2 449 11 q 340 -7 381 -7 q 176 44 252 -7 q 54 188 99 96 q 8 396 8 281 q 37 558 8 486 q 99 673 66 631 q 187 781 131 716 q 258 878 244 847 q 225 875 236 875 q 172 882 195 875 q 119 901 149 889 q 80 912 90 912 q 63 902 72 912 q 54 876 54 891 q 68 868 58 868 q 86 872 73 868 q 98 876 98 876 q 102 864 100 872 q 104 844 104 855 q 98 824 104 831 q 66 808 86 808 q 38 824 50 808 q 26 868 26 839 l 26 868 z "},"V":{"ha":789,"x_min":28,"x_max":739,"o":"m 411 919 q 433 985 411 957 q 491 1029 456 1014 q 563 1044 526 1044 q 621 1030 581 1044 q 701 965 662 1015 q 739 821 739 915 q 695 675 738 767 q 553 413 651 584 q 409 161 454 242 q 331 -8 364 79 q 224 238 266 106 q 139 566 182 370 q 79 834 97 763 q 28 956 61 905 l 205 956 q 170 912 179 926 q 161 875 161 898 q 204 676 174 811 q 276 394 234 542 q 354 205 319 245 q 485 424 388 267 q 622 670 581 581 q 664 830 664 759 q 650 913 664 874 q 606 976 635 952 q 536 1000 577 1000 q 480 982 505 1000 q 455 938 455 965 q 483 901 455 901 q 524 915 503 901 q 540 876 540 897 q 523 843 540 856 q 483 830 506 830 q 428 856 446 830 q 411 919 411 881 l 411 919 z "},"W":{"ha":1042,"x_min":7,"x_max":1003,"o":"m 729 909 q 761 968 729 948 q 838 987 793 987 q 907 968 869 987 q 974 905 946 949 q 1003 790 1003 860 q 970 616 1003 716 q 894 420 937 515 q 783 190 850 326 q 694 5 715 54 q 631 140 671 54 q 550 312 590 227 q 486 447 509 398 q 419 310 462 397 q 333 134 376 222 q 267 -4 291 46 q 181 239 255 44 q 63 564 107 433 q 7 790 18 695 q 38 922 7 865 q 132 979 68 979 q 166 972 157 979 q 176 939 176 965 q 100 904 120 939 q 79 826 79 869 q 123 654 79 790 q 223 387 168 518 q 306 229 278 256 q 389 387 346 292 q 453 535 432 483 q 434 606 453 548 q 403 709 415 665 q 392 790 392 752 q 407 861 392 826 q 448 919 422 897 q 507 942 475 942 q 590 903 566 942 q 615 808 615 865 q 605 730 615 765 q 576 648 595 695 q 551 576 557 602 q 604 462 570 535 q 670 316 637 389 q 722 201 703 243 q 794 360 758 280 q 857 510 830 441 q 901 648 884 579 q 918 769 918 716 q 894 870 918 834 q 828 907 870 907 q 799 901 810 907 q 776 882 789 896 q 757 862 764 869 q 741 885 753 870 q 729 909 729 901 l 729 909 m 514 883 q 477 863 489 883 q 465 818 465 842 q 479 729 465 780 q 508 655 493 679 q 551 790 551 722 q 514 883 551 883 l 514 883 z "},"X":{"ha":776,"x_min":7,"x_max":764,"o":"m 489 918 q 525 963 495 949 q 593 978 555 978 q 682 939 654 978 q 710 843 710 900 q 669 744 710 798 q 567 637 628 691 q 461 542 507 583 q 415 488 415 502 q 448 422 415 484 q 527 288 481 360 q 635 141 572 217 q 764 15 697 65 l 549 15 q 568 48 568 31 q 562 71 568 61 q 551 83 555 80 q 329 418 428 246 q 250 341 297 394 q 167 220 203 289 q 131 86 131 151 q 133 60 131 71 q 140 38 135 48 q 154 15 145 27 q 166 -4 162 2 q 87 -3 126 -3 q 7 -1 47 -2 q 63 120 49 76 q 88 196 77 164 q 147 310 99 228 q 197 374 167 342 q 265 445 227 406 q 304 488 303 484 q 227 645 276 539 q 149 857 177 750 q 120 895 139 876 q 95 923 101 914 l 282 923 q 267 886 277 906 q 256 843 256 865 q 285 760 256 836 q 345 622 315 684 q 389 560 375 560 q 483 637 410 581 q 593 736 556 693 q 631 826 631 779 q 612 871 631 854 q 567 887 593 887 q 528 881 541 887 q 502 850 514 875 q 494 876 498 858 q 489 918 489 895 l 489 918 z "},"Y":{"ha":751,"x_min":10,"x_max":707,"o":"m 568 915 q 707 947 638 935 l 707 917 q 697 690 707 826 q 664 401 686 554 q 608 121 642 248 q 556 -22 591 54 q 465 -154 521 -98 q 340 -210 410 -210 q 268 -181 302 -210 q 233 -103 233 -152 q 244 -81 233 -81 q 283 -100 252 -81 q 332 -119 314 -119 q 411 -88 371 -119 q 485 -7 451 -57 q 539 99 519 43 q 560 201 560 155 q 501 170 537 195 q 435 133 466 146 q 350 121 404 121 q 216 171 273 121 q 130 299 159 220 q 100 461 100 378 q 119 602 100 539 q 170 731 139 665 q 207 822 201 798 q 135 829 162 829 q 111 828 124 829 q 90 826 98 826 q 80 836 88 826 q 67 846 72 846 q 46 799 55 846 q 90 772 71 788 q 66 749 70 752 q 46 746 62 746 q 23 766 37 746 q 10 799 10 787 q 60 878 10 858 q 199 899 110 899 q 286 897 257 899 q 230 770 251 822 q 199 664 210 718 q 189 540 189 610 q 212 381 189 453 q 285 264 235 308 q 411 219 335 219 q 541 281 488 219 q 619 439 593 342 q 645 639 645 536 q 630 746 645 691 q 598 842 615 801 q 568 915 581 883 l 568 915 z "},"Z":{"ha":801,"x_min":1,"x_max":753,"o":"m 47 773 q 75 854 47 809 q 154 930 103 898 q 271 961 205 961 q 341 948 308 957 q 415 926 373 940 q 481 906 456 912 q 536 900 506 900 q 707 957 617 900 q 659 781 707 870 q 546 625 611 691 q 400 506 499 583 q 242 378 300 429 q 141 267 184 328 q 92 140 98 206 q 140 154 112 140 q 189 176 167 169 q 261 183 211 183 q 375 163 324 183 q 492 107 426 142 q 582 72 559 72 q 656 95 623 72 q 689 158 689 119 q 667 214 689 190 q 610 237 646 237 q 575 223 602 237 q 529 201 548 208 q 524 224 527 209 q 521 254 521 239 q 524 273 521 262 q 618 326 544 326 q 713 287 673 326 q 753 193 753 248 q 716 95 753 137 q 627 30 680 52 q 529 7 574 7 q 461 18 501 7 q 363 51 422 30 q 264 83 304 72 q 199 95 225 95 q 137 84 160 95 q 92 51 115 73 q 54 18 70 30 q 7 4 38 7 q 3 12 5 6 q 1 32 1 19 q 72 241 1 100 q 184 399 119 334 q 355 544 249 463 q 522 685 460 625 q 628 830 584 744 q 537 826 578 826 q 405 838 456 826 q 295 869 354 849 q 208 889 236 889 q 120 852 156 882 q 83 773 83 821 q 101 723 83 741 q 147 704 118 704 q 175 716 160 704 q 189 743 189 727 q 156 787 189 767 q 205 817 164 817 q 255 791 239 814 q 271 738 271 769 q 237 674 271 700 q 162 649 204 649 q 80 692 114 649 q 47 773 47 735 l 47 773 z "},"[":{"ha":303,"x_min":8,"x_max":306,"o":"m 215 986 q 198 915 215 965 q 152 780 180 864 q 107 606 124 695 q 90 421 90 517 q 117 204 90 311 q 181 9 143 97 q 255 -144 218 -79 q 306 -235 291 -210 l 270 -235 q 125 -17 185 -126 q 37 177 66 93 q 8 304 8 261 l 8 483 q 26 582 8 504 q 90 769 44 660 q 215 986 136 878 l 215 986 z "},"]":{"ha":340,"x_min":21,"x_max":298,"o":"m 31 996 q 87 933 43 989 q 180 791 132 877 q 264 598 229 706 q 298 380 298 490 q 253 186 298 338 q 145 -97 208 34 q 21 -244 82 -228 q 75 -130 32 -219 q 145 28 119 -41 q 190 183 172 97 q 208 371 208 269 q 186 595 208 496 q 141 746 164 693 q 77 881 118 800 q 31 996 37 962 l 31 996 z "},"a":{"ha":612,"x_min":4,"x_max":582,"o":"m 21 555 q 46 615 21 586 q 115 663 72 645 q 208 681 158 681 q 389 618 319 681 q 495 458 458 555 q 545 281 532 361 q 582 31 559 201 l 483 31 q 458 72 467 44 q 449 103 450 101 q 369 31 420 59 q 253 4 317 4 q 79 64 153 4 q 4 235 4 124 q 37 333 4 278 q 138 426 71 387 q 297 465 204 465 q 306 460 298 465 q 328 450 313 455 q 368 446 342 446 q 404 449 376 446 q 358 534 393 488 q 273 612 322 580 q 174 645 224 645 q 105 622 135 645 q 75 564 75 600 q 101 521 75 548 q 139 553 139 541 q 137 560 139 554 q 136 574 136 566 l 174 574 q 192 531 192 545 q 174 521 192 521 q 174 502 174 513 q 175 488 175 491 q 164 464 175 470 q 118 457 154 457 q 50 490 79 457 q 21 555 21 523 l 21 555 m 288 404 q 159 364 208 404 q 110 243 110 323 q 136 164 110 201 q 203 106 163 128 q 279 85 244 85 q 344 102 301 85 q 422 154 388 118 q 457 243 457 190 q 434 327 457 290 q 372 384 411 364 q 288 404 333 404 l 288 404 z "},"b":{"ha":657,"x_min":7,"x_max":593,"o":"m 135 947 q 61 859 97 900 q 7 799 25 818 q 58 789 47 794 q 70 753 70 783 l 70 142 q 60 107 70 119 q 36 89 51 95 q 8 78 22 83 q 75 -5 29 50 q 125 44 113 27 q 138 83 138 60 l 138 435 q 165 494 138 457 q 239 558 193 531 q 336 586 284 586 q 439 553 397 586 q 501 465 480 519 q 521 346 521 410 q 507 234 521 288 q 464 134 493 179 q 394 62 436 89 q 300 36 352 36 q 204 76 269 36 q 125 140 140 116 l 125 95 q 207 30 159 59 q 303 0 255 2 q 430 46 361 0 q 546 174 499 92 q 593 354 593 255 q 540 562 593 491 q 375 640 487 633 q 134 521 253 640 q 136 763 136 535 q 135 947 136 933 l 135 947 z "},"c":{"ha":612,"x_min":11,"x_max":582,"o":"m 11 331 q 61 506 11 426 q 187 633 110 586 q 340 679 264 679 q 434 658 388 679 q 508 600 479 637 q 537 518 537 563 q 497 418 537 451 q 396 385 457 385 q 316 411 345 385 q 288 482 288 438 q 291 515 288 504 q 299 533 294 527 q 315 543 305 538 q 340 554 324 547 q 353 507 348 525 q 364 481 358 490 q 381 469 370 472 q 412 465 392 465 q 454 486 434 465 q 475 536 475 506 q 460 582 475 556 q 417 625 446 607 q 350 643 388 643 q 244 618 293 643 q 159 552 194 592 q 104 465 124 512 q 83 376 83 417 q 119 238 83 306 q 216 126 154 170 q 350 82 277 82 q 426 97 394 82 q 506 142 457 112 q 582 179 554 172 q 495 70 549 109 q 391 16 442 30 q 306 1 340 1 q 207 22 273 2 q 76 116 142 42 q 11 331 11 189 l 11 331 z "},"d":{"ha":669,"x_min":15,"x_max":632,"o":"m 417 821 q 475 890 431 841 q 560 972 519 939 l 560 347 q 570 196 560 250 q 592 121 580 142 q 618 89 605 100 q 632 71 632 79 q 611 38 632 59 q 560 18 590 18 q 534 35 553 18 q 489 97 514 51 q 437 62 470 91 q 372 16 404 33 q 283 0 339 0 q 155 40 217 0 q 54 156 93 79 q 15 339 15 234 q 51 496 15 422 q 154 615 87 570 q 310 660 221 660 q 394 638 341 660 q 471 615 448 617 l 471 812 q 443 825 449 825 q 433 823 440 825 q 417 821 426 821 l 417 821 m 300 615 q 197 583 242 615 q 128 495 152 550 q 104 375 104 440 q 148 193 104 259 q 243 103 192 127 q 318 79 294 79 q 385 100 349 79 q 446 153 421 121 q 471 214 471 184 l 471 472 q 435 547 450 522 q 387 594 420 573 q 300 615 354 615 l 300 615 z "},"e":{"ha":632,"x_min":10,"x_max":590,"o":"m 10 329 q 29 441 10 383 q 87 548 48 498 q 186 629 126 598 q 323 660 246 660 q 528 597 416 660 q 432 455 493 546 q 311 274 372 365 q 215 132 250 183 q 282 90 248 101 q 368 79 317 79 q 465 95 428 79 q 538 136 502 110 q 590 170 574 163 q 498 48 572 98 q 314 -1 424 -1 q 239 8 268 -1 q 185 30 210 17 q 153 43 161 43 q 128 19 148 43 q 108 -28 108 -5 q 113 -51 108 -44 q 127 -63 118 -58 q 140 -73 136 -67 q 144 -90 144 -78 l 144 -126 q 56 -54 56 -124 q 82 25 56 -25 q 108 79 108 75 q 89 107 108 85 q 54 153 70 128 q 24 222 37 177 q 10 329 10 267 l 10 329 m 278 615 q 190 582 237 615 q 113 494 144 550 q 82 374 82 439 q 101 279 82 336 q 166 178 120 221 q 274 312 222 234 q 360 459 325 391 q 394 535 394 527 q 359 592 394 568 q 278 615 323 615 l 278 615 z "},"f":{"ha":401,"x_min":-3,"x_max":368,"o":"m 110 618 q 120 693 119 629 q 128 806 121 758 q 170 893 135 854 q 279 932 204 932 q 341 908 315 932 q 368 851 368 884 q 342 802 368 823 q 297 781 315 781 q 261 800 279 781 q 243 851 243 820 q 253 861 243 861 q 277 857 258 861 q 306 851 295 853 q 296 897 306 888 q 261 905 287 905 q 199 785 199 905 q 199 756 199 773 q 200 735 200 739 q 209 634 200 659 q 235 610 218 610 q 247 611 239 610 q 260 612 255 612 q 297 583 284 612 q 239 572 267 572 q 225 573 233 572 q 217 573 218 573 q 209 554 209 573 l 209 503 l 209 4 q 180 -140 209 -71 q 106 -252 152 -208 q 11 -300 59 -296 q -1 -251 -1 -249 q 11 -219 -1 -242 q 55 -190 32 -206 q 93 -157 78 -175 q 118 -111 109 -139 q 128 -42 128 -83 l 128 557 q 62 576 92 576 q 52 575 59 576 q 42 575 45 575 q -3 601 20 575 q 54 610 25 610 q 69 609 60 610 q 82 608 78 608 q 110 618 102 608 l 110 618 z "},"g":{"ha":687,"x_min":7,"x_max":647,"o":"m 390 755 q 410 799 401 789 q 451 808 418 808 q 524 710 524 808 q 515 655 524 680 q 506 621 506 631 q 533 576 506 608 q 578 516 561 545 q 594 443 594 487 q 552 325 594 365 q 446 263 509 284 q 322 221 382 242 q 251 166 261 200 l 325 166 q 647 -31 647 166 q 602 -143 647 -88 q 473 -235 556 -199 q 283 -271 390 -271 q 165 -254 225 -271 q 64 -200 105 -237 q 23 -110 23 -164 q 52 -56 23 -81 q 122 -31 80 -31 q 151 -35 141 -31 q 172 -52 160 -39 q 185 -65 184 -64 l 185 -118 q 167 -107 180 -116 q 144 -95 154 -99 q 122 -92 134 -92 q 94 -104 111 -92 q 78 -136 78 -117 q 134 -204 78 -173 q 265 -235 190 -235 q 460 -183 377 -235 q 542 -31 542 -131 q 482 95 542 58 q 336 132 422 132 q 251 120 279 132 q 191 89 223 109 q 140 68 160 68 q 129 71 134 68 q 116 82 124 75 q 104 95 109 90 q 158 142 124 114 q 202 185 191 169 q 215 229 213 202 q 64 323 122 271 q 7 451 7 375 q 44 555 7 506 q 147 635 81 605 q 292 665 212 665 l 435 665 q 445 655 438 661 q 460 649 453 649 q 479 701 479 649 q 465 732 479 722 q 423 748 452 742 q 390 755 394 754 l 390 755 m 300 631 q 207 608 253 631 q 133 544 161 585 q 104 451 104 502 q 119 377 104 417 q 158 311 133 338 q 213 285 183 285 q 239 292 223 285 q 233 316 236 308 q 229 326 229 323 q 244 349 229 336 q 281 371 259 362 q 322 380 303 380 l 322 264 q 447 334 407 277 q 488 451 488 390 q 479 508 488 483 q 459 551 470 534 q 443 567 447 567 q 416 561 439 567 q 376 555 393 555 q 300 594 330 555 q 335 605 317 602 q 372 618 353 608 q 300 631 305 631 l 300 631 z "},"h":{"ha":650,"x_min":21,"x_max":610,"o":"m 21 794 q 94 886 46 834 q 172 946 142 937 l 172 563 q 249 601 203 569 q 318 647 294 634 q 386 660 342 660 q 511 621 462 660 q 580 521 559 581 q 602 393 602 460 q 582 276 602 338 q 533 149 562 214 q 503 79 504 84 q 512 72 512 76 q 514 68 512 68 q 604 89 515 68 q 610 -8 604 36 q 441 1 492 1 q 424 1 431 1 q 412 0 416 0 q 469 115 447 66 q 506 224 490 164 q 521 347 521 285 q 509 434 521 391 q 476 508 498 476 q 420 560 453 541 q 342 579 386 579 q 261 557 298 579 q 202 504 224 535 q 180 446 180 472 l 180 89 q 197 42 180 65 q 227 8 213 20 l 56 8 q 85 43 78 31 q 92 71 92 54 l 92 794 q 52 796 75 796 q 21 794 32 796 l 21 794 z "},"i":{"ha":221,"x_min":3,"x_max":174,"o":"m 39 793 q 52 824 39 811 q 83 838 65 838 q 128 793 128 838 q 115 760 128 772 q 83 747 102 747 q 39 793 39 747 l 39 793 m 3 551 q 64 600 28 578 q 128 632 100 622 l 128 176 q 174 -1 128 73 l 21 -1 q 36 38 23 7 q 49 78 49 69 l 49 382 q 3 551 49 505 l 3 551 z "},"j":{"ha":243,"x_min":-21,"x_max":194,"o":"m 68 825 q 87 852 68 836 q 131 868 106 868 q 154 850 141 868 q 167 815 167 833 q 153 784 167 798 q 121 771 139 771 q 85 788 101 771 q 68 825 68 806 l 68 825 m 158 673 q 19 581 72 611 q 61 557 36 576 q 86 521 86 538 l 86 -114 q 33 -211 86 -194 q -7 -192 -4 -192 q -12 -196 -10 -192 q -21 -201 -14 -201 q -19 -218 -20 -207 q -16 -234 -19 -229 q -6 -244 -13 -240 q 14 -247 1 -247 q 74 -212 49 -244 q 135 -118 99 -181 q 194 -35 172 -55 q 170 -17 179 -35 q 158 11 161 0 l 158 673 l 158 673 z "},"k":{"ha":612,"x_min":13,"x_max":583,"o":"m 13 796 q 72 873 32 830 q 145 938 112 916 l 145 403 q 259 436 192 403 q 375 517 326 468 q 424 608 424 565 q 411 639 424 626 q 388 653 399 653 q 342 626 386 653 q 322 671 322 660 q 326 676 322 676 l 331 676 q 333 679 333 676 q 396 743 333 743 q 464 712 444 743 q 485 635 485 681 q 457 543 485 585 q 394 474 429 501 q 308 413 359 446 q 244 368 256 380 q 335 314 301 325 q 389 294 368 303 q 428 241 411 284 q 493 56 446 197 q 532 61 517 61 q 546 59 543 61 q 549 56 549 57 q 578 52 574 56 q 583 29 583 48 q 566 -1 583 14 q 531 -15 549 -15 q 460 15 486 -15 q 395 116 434 44 q 316 238 356 187 q 210 324 276 289 l 155 324 l 155 90 q 201 3 155 55 l 31 3 q 57 36 38 15 q 76 74 76 58 l 76 786 q 42 799 52 799 q 30 797 39 799 q 13 796 21 796 l 13 796 z "},"l":{"ha":258,"x_min":21,"x_max":210,"o":"m 21 796 q 77 872 41 833 q 156 929 113 911 l 156 72 q 182 38 156 67 q 210 7 208 9 q 93 -1 164 -1 q 48 1 60 -1 q 64 37 53 17 q 80 75 76 58 q 85 135 85 92 l 85 751 q 68 783 85 771 q 21 796 52 796 l 21 796 z "},"m":{"ha":903,"x_min":8,"x_max":857,"o":"m 482 567 q 513 590 487 567 q 571 630 539 613 q 643 647 602 647 q 734 619 683 647 q 821 537 784 591 q 857 407 857 482 q 837 305 857 359 q 794 206 818 251 q 715 68 769 161 q 760 61 741 61 q 786 64 768 61 q 812 68 804 67 l 812 -13 q 728 -3 756 -3 q 702 -3 726 -3 q 643 -4 678 -4 q 684 106 652 36 q 733 234 716 176 q 750 371 750 292 q 734 467 750 420 q 685 545 719 514 q 598 576 650 576 q 536 548 572 576 q 500 496 500 520 q 517 430 507 471 q 528 371 528 389 q 481 163 516 291 q 383 10 446 35 q 400 92 389 45 q 416 183 411 138 q 421 299 421 227 q 392 490 421 422 q 278 558 363 558 q 177 498 200 558 q 153 345 153 439 q 159 149 153 218 q 174 53 165 81 q 199 12 183 26 q 215 -4 214 -3 l 46 -4 q 70 36 59 23 q 81 68 81 49 l 81 433 q 67 499 81 476 q 31 543 53 522 q 8 576 8 565 q 25 601 8 582 q 62 621 42 621 q 86 610 74 621 q 110 584 98 599 q 133 555 121 569 q 153 540 145 540 q 176 559 160 540 q 208 595 191 579 q 255 625 224 611 q 331 639 286 639 q 388 624 359 639 q 446 588 416 609 q 482 567 476 567 l 482 567 z "},"n":{"ha":644,"x_min":15,"x_max":598,"o":"m 168 554 q 356 653 267 653 q 487 617 432 653 q 570 518 542 582 q 598 375 598 455 q 580 247 598 298 q 535 155 561 196 q 508 104 508 114 q 530 78 508 97 q 567 42 552 59 q 458 -2 492 10 q 382 -17 425 -13 q 455 114 426 64 q 500 218 483 165 q 518 339 518 272 q 495 453 518 397 q 430 545 473 509 q 329 581 387 581 q 242 554 281 581 q 181 481 203 527 q 160 383 160 436 l 160 296 l 160 96 q 163 56 160 69 q 176 34 166 44 q 213 7 186 24 q 93 -5 170 -5 q 15 3 44 -5 q 55 55 42 35 q 68 104 68 76 l 68 237 l 68 410 q 61 497 68 461 q 44 549 53 533 q 25 576 36 564 q 15 590 15 587 q 35 622 15 599 q 68 644 56 644 q 99 630 83 644 q 137 589 114 616 q 168 554 160 562 l 168 554 z "},"o":{"ha":707,"x_min":6,"x_max":664,"o":"m 6 340 q 36 472 6 411 q 116 578 66 533 q 226 647 166 623 q 343 671 286 671 q 504 626 430 671 q 621 506 577 582 q 664 340 664 430 q 617 171 664 250 q 493 47 571 93 q 326 1 415 1 q 160 48 233 1 q 46 172 87 94 q 6 340 6 250 l 6 340 m 290 598 q 214 575 264 598 q 124 506 164 551 q 85 403 85 461 q 129 252 85 329 q 240 124 173 175 q 369 74 307 74 q 481 108 430 74 q 563 192 533 142 q 593 286 593 243 q 556 408 593 332 q 450 541 519 484 q 290 598 381 598 l 290 598 z "},"p":{"ha":657,"x_min":0,"x_max":620,"o":"m 174 567 q 226 614 198 589 q 291 656 254 639 q 382 673 329 673 q 565 587 511 673 q 620 380 620 500 q 581 200 620 286 q 469 62 542 115 q 301 8 397 8 q 273 12 289 8 q 244 20 258 15 q 210 33 230 25 q 174 49 191 41 l 174 -79 q 180 -119 174 -103 q 194 -145 185 -134 q 214 -168 203 -156 q 76 -247 126 -234 q 75 -12 76 -162 q 74 288 75 138 q 74 522 74 437 q 62 555 74 541 q 27 584 50 570 q 0 603 5 599 q 46 657 39 651 q 72 664 53 664 q 101 648 85 664 q 140 605 117 633 q 174 567 163 576 l 174 567 m 346 608 q 276 582 318 608 q 204 513 235 556 q 174 425 174 471 l 174 132 q 231 150 192 142 q 237 112 235 127 q 247 83 240 96 q 269 61 254 69 q 311 53 284 53 q 422 103 372 53 q 502 226 472 153 q 533 358 531 298 q 508 488 533 430 q 440 577 483 545 q 346 608 397 608 l 346 608 z "},"q":{"ha":663,"x_min":11,"x_max":618,"o":"m 11 332 q 25 427 11 370 q 70 540 38 484 q 159 634 102 596 q 297 672 215 672 q 387 654 347 672 q 476 590 427 636 q 504 623 488 605 q 539 657 520 642 q 574 672 557 672 q 598 647 578 672 q 618 600 618 621 q 602 580 618 590 q 576 560 586 569 q 557 522 567 551 q 547 439 547 492 l 547 -52 q 559 -108 547 -68 q 592 -168 571 -148 q 524 -212 558 -190 q 457 -257 491 -235 q 453 -248 455 -252 q 449 -239 451 -243 q 464 -164 461 -185 q 467 -96 467 -143 q 453 64 467 -86 q 402 40 431 58 q 345 12 372 22 q 271 3 318 3 q 143 47 203 3 q 47 168 82 92 q 11 332 11 244 l 11 332 m 288 628 q 196 592 237 628 q 133 500 155 556 q 110 386 110 444 q 144 228 110 295 q 227 125 179 160 q 314 90 276 90 q 368 103 345 90 q 411 134 392 115 q 449 172 430 153 l 449 465 q 428 537 449 499 q 371 602 408 575 q 288 628 334 628 l 288 628 z "},"r":{"ha":524,"x_min":5,"x_max":494,"o":"m 178 558 q 229 602 192 569 q 296 650 266 635 q 369 664 326 664 q 457 637 419 664 q 494 567 494 610 q 473 502 494 525 q 415 478 451 478 q 396 480 405 478 q 378 487 386 483 q 362 498 370 492 q 353 504 354 504 q 387 530 371 519 q 405 545 403 542 q 407 558 407 547 q 388 590 407 578 q 335 603 369 603 q 272 581 309 603 q 209 521 236 559 q 183 433 183 482 l 183 165 q 195 78 183 108 q 228 14 207 47 q 143 3 204 3 q 58 14 97 3 q 105 151 105 63 q 105 179 105 162 q 104 201 104 196 q 90 436 104 356 q 59 540 76 516 q 24 572 42 564 q 5 593 5 581 q 30 629 5 602 q 67 655 55 655 q 114 634 93 655 q 178 558 135 612 l 178 558 z "},"s":{"ha":587,"x_min":10,"x_max":542,"o":"m 46 500 q 84 593 46 555 q 182 650 123 631 q 303 668 241 668 q 471 563 471 668 q 453 525 471 544 q 409 494 436 506 q 356 482 381 482 q 289 503 310 482 q 268 554 268 525 q 273 577 268 572 q 307 598 278 581 q 337 563 323 571 q 356 554 350 554 q 380 568 368 554 q 392 598 392 582 q 362 630 392 617 q 294 643 332 643 q 170 613 234 643 q 107 528 107 583 q 148 464 107 478 q 307 427 189 450 q 484 364 426 403 q 542 235 542 324 q 498 120 542 176 q 377 31 454 65 q 205 -3 299 -3 q 57 42 105 -3 q 10 156 10 86 q 33 224 10 194 q 91 271 56 254 q 161 288 127 288 q 255 268 216 288 q 294 205 294 248 q 286 163 294 179 q 250 129 278 148 l 179 129 q 194 159 183 138 q 205 182 205 180 q 187 214 205 201 q 133 227 168 227 q 65 201 95 227 q 36 137 36 176 q 86 71 36 94 q 205 47 135 47 q 321 64 259 47 q 427 119 382 81 q 471 217 471 157 q 419 303 471 280 q 261 346 368 327 q 100 396 154 366 q 46 500 46 426 l 46 500 z "},"t":{"ha":315,"x_min":10,"x_max":260,"o":"m 180 883 q 185 840 185 867 q 184 807 185 830 q 183 772 183 785 q 184 756 183 766 q 185 740 185 746 q 184 696 185 716 q 183 675 183 676 q 195 655 183 659 q 260 651 208 651 l 260 615 l 189 615 l 189 160 q 251 62 189 110 q 220 23 241 47 q 180 0 198 0 q 145 26 167 0 q 107 103 123 51 q 90 231 90 155 l 90 597 q 43 620 50 620 q 35 617 39 620 q 24 609 31 615 q 10 597 18 604 l 10 643 q 74 654 57 644 q 90 696 90 663 q 86 717 90 708 q 75 738 83 726 q 64 758 67 750 q 99 797 77 772 q 145 845 122 821 q 180 883 168 869 l 180 883 z "},"u":{"ha":625,"x_min":0,"x_max":596,"o":"m 18 578 l 18 658 q 86 651 56 653 q 149 649 116 649 q 204 646 183 648 q 163 566 194 620 q 119 486 132 512 q 92 418 105 460 q 79 328 79 375 q 95 230 79 287 q 155 126 111 172 q 275 79 199 79 q 350 100 315 79 q 406 154 385 120 q 426 229 426 189 l 426 569 q 421 595 426 585 q 402 622 415 605 q 382 649 388 638 l 551 649 q 515 601 524 621 q 507 555 507 581 l 507 524 q 506 439 507 502 q 504 335 504 376 q 507 213 504 301 q 535 150 507 197 q 596 85 564 102 q 568 34 580 52 q 535 17 555 17 q 502 30 516 17 q 461 70 487 43 q 426 97 435 97 q 398 76 417 97 q 364 41 379 55 q 315 13 349 26 q 231 -1 280 -1 q 138 26 193 -1 q 42 114 83 53 q 0 267 0 174 q 11 333 0 287 q 47 443 21 378 q 115 575 74 507 q 72 583 87 583 q 53 581 68 583 q 18 578 38 578 l 18 578 z "},"v":{"ha":606,"x_min":7,"x_max":561,"o":"m 382 663 q 397 712 382 700 q 454 725 413 725 q 531 682 502 725 q 561 574 561 639 q 502 393 561 518 q 369 145 442 267 q 275 3 296 23 q 180 163 218 77 q 113 340 142 249 q 57 515 84 431 q 7 635 31 600 l 176 635 q 156 596 170 616 q 142 547 142 576 q 165 428 142 516 q 224 252 189 339 q 297 126 260 165 q 369 240 321 150 q 453 425 416 330 q 490 564 490 520 q 478 626 490 598 q 437 654 466 654 q 392 608 429 654 q 375 651 375 637 q 378 661 375 659 q 382 663 380 663 l 382 663 z "},"w":{"ha":840,"x_min":13,"x_max":785,"o":"m 590 693 q 617 740 590 720 q 678 761 643 761 q 762 719 742 761 q 785 604 782 677 q 770 500 785 553 q 729 390 755 448 q 643 214 703 332 q 539 7 583 95 q 477 168 514 67 q 428 301 440 270 q 398 368 416 333 q 311 169 356 271 q 232 -7 266 67 q 144 303 189 141 q 84 515 98 465 q 53 598 69 564 q 13 657 37 633 l 172 657 q 158 639 168 650 q 144 619 148 627 q 140 601 140 611 q 203 371 163 512 q 267 205 244 230 q 317 320 288 256 q 373 447 346 384 q 428 576 400 511 q 469 457 443 533 q 522 305 496 381 q 564 186 549 229 q 613 268 571 190 q 688 436 654 346 q 722 596 722 527 q 709 657 722 629 q 671 685 696 685 q 637 647 653 685 q 590 693 590 657 l 590 693 z "},"x":{"ha":587,"x_min":0,"x_max":545,"o":"m 347 633 q 370 699 354 682 q 428 715 387 715 q 495 683 472 715 q 518 607 518 651 q 495 524 518 566 q 439 443 472 481 q 363 363 407 406 q 313 313 320 321 q 383 220 338 279 q 474 102 429 161 q 545 10 519 43 q 465 -3 518 -3 q 418 -1 451 -3 q 367 0 385 0 q 372 13 371 9 q 375 18 374 17 l 375 18 q 374 17 375 18 q 374 17 374 17 q 371 36 371 17 q 346 110 371 65 q 290 196 321 156 q 244 247 258 237 q 159 143 193 196 q 125 54 125 91 q 130 33 125 41 q 156 7 136 25 q 70 -42 134 2 q 0 -89 7 -87 q 48 75 20 11 q 103 173 76 140 q 167 240 131 207 q 218 292 204 272 q 205 315 216 295 q 158 402 194 335 q 44 616 121 470 l 151 616 l 213 616 q 197 593 205 604 q 186 576 189 581 q 181 569 182 571 q 180 564 180 566 q 185 550 180 561 q 205 498 191 533 q 238 430 218 463 q 289 367 258 397 q 387 462 328 398 q 446 581 446 526 q 432 614 446 595 q 401 633 418 633 q 393 632 395 633 q 386 630 391 630 q 347 633 369 630 l 347 633 z "},"y":{"ha":612,"x_min":11,"x_max":572,"o":"m 394 643 q 496 654 494 654 q 572 643 518 654 q 532 592 551 614 q 514 564 514 569 q 517 555 514 562 q 524 537 521 548 q 526 504 526 527 q 528 339 528 437 q 526 131 528 215 q 490 -98 524 -12 q 391 -222 455 -185 q 233 -260 327 -260 q 165 -241 196 -260 q 135 -189 135 -222 q 159 -159 135 -174 q 219 -136 183 -144 q 230 -190 225 -175 q 247 -210 236 -205 q 286 -215 259 -215 q 374 -184 344 -215 q 437 -83 403 -153 l 437 76 q 433 86 435 81 q 429 95 431 90 q 381 59 408 80 q 340 28 355 38 q 298 13 324 19 q 233 7 273 7 q 121 39 172 7 q 41 134 70 72 q 11 282 11 197 q 24 379 11 338 q 60 471 36 419 q 90 549 84 523 q 66 562 82 554 q 24 585 51 569 q 180 637 93 617 q 149 540 178 600 q 105 435 120 480 q 90 308 90 390 q 113 196 90 250 q 180 110 137 143 q 278 76 222 76 q 358 100 321 76 q 416 164 395 124 q 437 246 437 203 l 437 567 q 431 593 437 582 q 417 616 426 605 q 394 643 408 626 l 394 643 z "},"z":{"ha":600,"x_min":5,"x_max":549,"o":"m 40 512 q 70 588 47 534 q 117 676 93 641 q 194 642 169 642 q 212 646 202 642 q 229 650 222 650 l 549 650 q 481 576 532 632 q 362 438 431 521 q 236 267 294 354 q 160 115 178 180 q 240 99 189 109 q 343 78 292 88 q 424 61 394 67 q 480 80 446 65 q 514 124 514 94 q 499 152 514 136 q 468 168 485 168 q 458 160 464 168 q 440 145 453 153 q 397 132 427 137 l 397 203 q 434 235 424 229 q 468 240 444 240 q 549 150 549 240 q 500 43 549 79 q 362 7 451 7 q 299 13 328 7 q 222 30 270 19 q 158 42 174 42 q 116 35 130 42 q 67 6 103 28 q 5 -22 32 -16 q 112 222 71 142 q 174 329 153 302 q 265 434 195 355 q 394 596 334 512 l 290 596 q 195 579 227 591 q 120 544 164 567 q 40 512 75 521 l 40 512 z "}}}
